<?xml version="1.0" standalone="no"?>
<!DOCTYPE svg PUBLIC "-//W3C//DTD SVG 20010904//EN"
 "http://www.w3.org/TR/2001/REC-SVG-20010904/DTD/svg10.dtd">
<svg version="1.0" xmlns="http://www.w3.org/2000/svg"
 width="1200.000000pt" height="535.000000pt" viewBox="0 0 1200.000000 535.000000"
 preserveAspectRatio="xMidYMid meet">

<g transform="translate(0.000000,535.000000) scale(0.100000,-0.100000)"
fill="#087EA4" stroke="none">
<path d="M5457 3941 c-8 -196 -24 -218 -187 -268 -103 -32 -100 -28 -85 -104
l7 -36 -83 -56 c-46 -31 -106 -73 -134 -93 -51 -37 -114 -68 -196 -98 -31 -11
-79 -47 -145 -107 -217 -198 -370 -275 -831 -415 -123 -37 -222 -69 -220 -70
1 -2 209 -23 462 -48 777 -77 1048 -94 1565 -102 939 -15 1585 78 2026 292
321 156 509 386 542 664 l9 72 -31 -6 c-53 -9 -931 -123 -1355 -176 -484 -60
-561 -67 -561 -52 0 16 10 18 380 63 190 23 349 46 354 50 12 10 -111 46 -204
58 -41 6 -129 15 -196 21 -127 10 -174 23 -264 69 -71 37 -147 58 -235 66
-123 11 -493 -24 -632 -60 -59 -15 -67 -7 -27 24 35 27 111 50 196 58 37 3 72
11 77 17 5 6 6 27 2 46 -7 34 -8 35 -59 38 -42 2 -52 0 -52 -12 0 -12 -10 -16
-35 -16 l-35 0 -1 113 c0 137 -9 191 -30 195 -14 2 -17 -16 -22 -127z m58
-433 l-34 -63 -158 -27 c-87 -15 -165 -27 -173 -27 -15 0 93 73 165 111 45 25
178 67 212 67 22 1 22 -1 -12 -61z m1275 -35 c102 -13 -14 -28 -550 -73 -824
-69 -1174 -125 -1428 -227 -49 -19 -67 -22 -75 -13 -16 15 16 41 103 85 218
109 711 190 1370 225 327 17 466 18 580 3z"/>
<path d="M4555 2152 c-147 -3 -157 -4 -127 -17 l32 -14 0 -268 c0 -147 -4
-273 -8 -280 -4 -7 -19 -16 -32 -22 -18 -7 27 -10 158 -10 100 -1 182 1 182 3
0 2 11 33 25 70 14 36 23 66 21 66 -3 0 -14 -17 -26 -38 -33 -59 -63 -72 -169
-72 l-91 0 0 130 0 130 78 0 c85 0 97 -4 111 -40 8 -20 10 -9 10 50 0 59 -2
70 -10 50 -14 -36 -26 -40 -111 -40 l-78 0 0 135 0 135 98 0 c102 0 119 -6
135 -50 3 -8 6 9 6 38 1 48 -1 52 -21 50 -13 -1 -95 -4 -183 -6z"/>
<path d="M5150 2152 c0 -25 -231 -556 -251 -578 -12 -13 -31 -25 -43 -27 -11
-2 19 -5 69 -6 84 -1 88 0 67 15 -28 20 -28 24 9 117 l31 77 118 0 117 0 32
-85 c18 -46 29 -90 26 -96 -4 -6 -17 -14 -29 -19 -14 -6 15 -9 84 -8 80 0 97
2 74 9 -18 5 -38 19 -46 31 -8 13 -65 145 -127 293 -105 253 -131 307 -131
277z m59 -246 c23 -60 41 -113 41 -117 0 -5 -45 -9 -100 -9 -59 0 -100 4 -100
10 0 5 18 56 41 112 23 57 46 114 51 128 12 29 4 44 67 -124z"/>
<path d="M5645 2128 c-3 -18 -19 -147 -35 -287 -31 -265 -36 -285 -84 -294
-11 -2 17 -5 64 -5 60 -1 78 2 63 8 -16 7 -23 18 -23 37 -1 57 34 412 39 408
3 -2 53 -107 111 -234 58 -127 108 -231 111 -231 4 0 10 12 13 26 9 34 198
455 203 450 7 -7 43 -421 37 -438 -3 -9 -15 -19 -27 -21 -12 -2 23 -4 78 -5
79 0 93 2 67 9 -19 6 -36 19 -41 32 -4 12 -23 147 -41 299 -18 153 -36 275
-40 273 -4 -2 -58 -117 -120 -255 -62 -137 -116 -250 -120 -250 -4 0 -60 115
-125 255 -65 140 -119 255 -121 255 -2 0 -6 -15 -9 -32z"/>
<path d="M7295 2147 c-94 -32 -159 -88 -196 -172 -32 -70 -31 -189 0 -262 30
-69 101 -134 177 -162 49 -19 73 -22 149 -19 115 6 179 32 239 99 55 62 76
121 76 218 0 130 -65 233 -179 284 -57 26 -206 33 -266 14z m221 -32 c51 -21
110 -81 135 -138 33 -76 32 -192 -3 -267 -49 -106 -124 -154 -243 -154 -59 0
-79 4 -124 29 -116 64 -166 203 -128 353 42 158 209 240 363 177z"/>
<path d="M8050 2152 c0 -25 -231 -556 -251 -578 -12 -13 -31 -25 -43 -27 -11
-2 19 -5 69 -6 84 -1 88 0 67 15 -28 20 -28 24 9 117 l31 77 118 0 117 0 32
-85 c18 -46 29 -90 26 -96 -4 -6 -17 -14 -29 -19 -14 -6 15 -9 84 -8 80 0 97
2 74 9 -18 5 -38 19 -46 31 -8 13 -65 145 -127 293 -105 252 -131 308 -131
277z m59 -246 c23 -60 41 -113 41 -117 0 -5 -45 -9 -100 -9 -59 0 -100 4 -100
10 0 5 18 56 41 112 23 57 46 114 51 128 12 29 4 44 67 -124z"/>
<path d="M8330 2115 c0 -39 0 -39 16 -17 14 20 23 22 110 22 l94 0 0 -268 c0
-244 -2 -270 -17 -284 -10 -9 -27 -18 -38 -21 -11 -2 25 -5 80 -5 75 -1 94 2
75 9 -13 6 -28 15 -32 22 -4 7 -8 132 -8 280 l0 267 94 0 c97 0 109 -5 119
-45 2 -11 5 3 6 30 l1 50 -250 0 -250 0 0 -40z"/>
<path d="M3190 2142 c45 -14 50 -39 50 -297 0 -258 -5 -283 -50 -296 -14 -5
63 -7 170 -6 180 2 199 4 246 25 110 50 168 145 168 277 -1 133 -57 226 -169
277 -46 21 -66 23 -245 25 -107 1 -184 -1 -170 -5z m375 -41 c52 -24 93 -65
119 -121 17 -36 21 -64 21 -140 0 -88 -2 -99 -31 -150 -23 -41 -45 -63 -84
-87 -53 -32 -56 -33 -177 -33 l-123 0 0 275 0 275 118 0 c92 0 126 -4 157 -19z"/>
<path d="M3845 2143 c11 -3 28 -12 38 -21 15 -14 17 -40 17 -277 0 -237 -2
-263 -17 -277 -10 -9 -27 -18 -38 -21 -11 -2 25 -5 80 -5 55 0 91 3 80 5 -45
11 -45 12 -45 299 l0 274 68 0 c100 0 142 -40 142 -135 0 -89 -47 -135 -137
-135 l-48 0 33 -26 c17 -14 61 -67 96 -117 99 -142 133 -167 224 -167 l47 1
-38 13 c-51 19 -67 34 -153 148 -41 53 -79 100 -85 103 -6 4 6 15 28 25 130
58 133 253 6 306 -23 10 -75 14 -175 13 -79 -1 -134 -4 -123 -6z"/>
<path d="M6600 2139 c13 -6 28 -15 32 -22 10 -16 10 -528 0 -544 -4 -7 -19
-17 -32 -22 -19 -8 14 -10 125 -8 163 2 195 11 237 67 60 81 17 219 -78 250
l-34 12 32 22 c41 27 64 87 54 138 -8 42 -50 87 -98 105 -41 14 -275 17 -238
2z m236 -53 c29 -29 34 -41 34 -80 0 -26 -7 -60 -15 -75 -15 -30 -67 -60 -107
-62 -12 -1 1 -5 31 -10 98 -17 145 -65 145 -149 -1 -94 -54 -140 -163 -140
l-61 0 0 275 0 275 51 0 c45 0 55 -4 85 -34z"/>
<path d="M2766 2099 c-165 -40 -309 -129 -435 -266 -61 -67 -70 -74 -89 -64
-106 57 -428 76 -574 34 -83 -24 -194 -70 -186 -78 2 -3 38 2 79 11 55 12 113
15 224 12 171 -5 291 -31 449 -99 50 -21 91 -37 91 -36 1 1 19 35 41 76 47 91
166 219 263 284 59 40 158 91 261 135 24 10 24 11 -10 11 -19 0 -70 -9 -114
-20z"/>
<path d="M9158 2087 c210 -88 389 -237 471 -395 25 -49 48 -81 54 -78 7 2 48
21 92 40 140 61 261 88 425 93 108 4 166 1 229 -11 47 -8 86 -14 88 -12 10 10
-150 70 -229 87 -154 31 -357 19 -499 -30 l-56 -19 -114 112 c-83 81 -133 121
-184 148 -88 46 -220 87 -299 94 l-61 5 83 -34z"/>
</g>
</svg>
